<mxfile host="app.diagrams.net" modified="2020-11-24T16:29:17.840Z" agent="5.0 (Macintosh; Intel Mac OS X 10_15_4) AppleWebKit/537.36 (KHTML, like Gecko) Chrome/86.0.4240.198 Safari/537.36" etag="aDYhwHLUK8sac70xtlBu" version="13.10.2" type="github">
  <diagram id="Gj_wWmISH5d1NkYIvcMC" name="Page-1">
    <mxGraphModel dx="950" dy="771" grid="1" gridSize="10" guides="1" tooltips="1" connect="1" arrows="1" fold="1" page="1" pageScale="1" pageWidth="1169" pageHeight="827" math="0" shadow="0">
      <root>
        <mxCell id="0" />
        <mxCell id="1" parent="0" />
        <mxCell id="u2SFOlpM5_yBMviXiRNT-2" value="" style="shape=flexArrow;endArrow=classic;html=1;endWidth=46;endSize=13;width=38;" edge="1" parent="1">
          <mxGeometry width="50" height="50" relative="1" as="geometry">
            <mxPoint x="40" y="360" as="sourcePoint" />
            <mxPoint x="160" y="360" as="targetPoint" />
            <Array as="points" />
          </mxGeometry>
        </mxCell>
        <mxCell id="u2SFOlpM5_yBMviXiRNT-3" value="HTTP Request" style="edgeLabel;html=1;align=center;verticalAlign=middle;resizable=0;points=[];" vertex="1" connectable="0" parent="u2SFOlpM5_yBMviXiRNT-2">
          <mxGeometry x="-0.5167" y="-1" relative="1" as="geometry">
            <mxPoint x="31" as="offset" />
          </mxGeometry>
        </mxCell>
        <mxCell id="u2SFOlpM5_yBMviXiRNT-4" value="/" style="rounded=0;whiteSpace=wrap;html=1;" vertex="1" parent="1">
          <mxGeometry x="280" y="320" width="160" height="80" as="geometry" />
        </mxCell>
      </root>
    </mxGraphModel>
  </diagram>
</mxfile>
